<?xml version="1.0" encoding="UTF-8"?>
<svg id="Layer_1" data-name="Layer 1" xmlns="http://www.w3.org/2000/svg" viewBox="0 0 95.38 99.01">
  <path d="M82.15,16.74l10.35-11.35-6.15-5.39-10.67,11.67c-2.77-1.78-5.75-3.32-9.01-4.53-5.85-2.17-12.24-3.26-19.18-3.26s-13.18,1.09-18.99,3.26c-5.81,2.17-10.82,5.26-15.04,9.27-4.22,4.01-7.52,8.88-9.9,14.6-2.38,5.72-3.57,12.14-3.57,19.24s1.19,13.26,3.57,18.99c1.97,4.74,4.65,8.88,7.89,12.53L.5,93.62l6.27,5.39,10.7-11.58c3.3,2.53,6.96,4.63,11.05,6.25,5.8,2.3,12.13,3.45,18.99,3.45s13.33-1.15,19.18-3.45c5.85-2.3,10.9-5.52,15.17-9.65,4.26-4.14,7.58-9.07,9.97-14.79,2.38-5.72,3.57-12.05,3.57-18.99s-1.19-13.51-3.57-19.24c-2.32-5.58-5.56-10.33-9.66-14.28Zm-6.13,46.62c-1.46,3.97-3.55,7.42-6.27,10.34-2.71,2.93-5.95,5.2-9.72,6.83-3.76,1.63-7.89,2.45-12.41,2.45s-8.62-.82-12.34-2.45c-3.72-1.63-6.94-3.9-9.65-6.83-2.71-2.92-4.8-6.37-6.26-10.34-1.46-3.97-2.19-8.33-2.19-13.1s.73-8.86,2.19-12.79c1.46-3.92,3.53-7.35,6.2-10.28,2.67-2.92,5.87-5.22,9.59-6.89,3.72-1.67,7.87-2.51,12.47-2.51s8.78,.83,12.54,2.51c3.76,1.67,6.98,3.97,9.65,6.89,2.68,2.92,4.74,6.35,6.21,10.28,1.46,3.93,2.19,8.19,2.19,12.79s-.73,9.13-2.19,13.1Z"/>
</svg>